<?xml version="1.0" standalone="no"?><?xml-stylesheet type="text/css" href="https://wps.processon.com/themes/default/wps/mind/icons/icons.css" ?><!DOCTYPE svg PUBLIC "-//W3C//DTD SVG 1.1//EN" "http://www.w3.org/Graphics/SVG/1.1/DTD/svg11.dtd"><svg id="SvgjsSvg1006" width="1142.4285714285716" height="848.5342916850183" xmlns="http://www.w3.org/2000/svg" version="1.1" xmlns:xlink="http://www.w3.org/1999/xlink" xmlns:svgjs="http://svgjs.com/svgjs"><defs id="SvgjsDefs1007"><pattern patternUnits="userSpaceOnUse" id="pattern_mark_0" width="300" height="300"><text x="150" y="100" fill="rgba(229,229,229,0.8)" font-size="18" transform="rotate(-45, 150, 150)" style="dominant-baseline: middle; text-anchor: middle;"></text></pattern><pattern patternUnits="userSpaceOnUse" id="pattern_mark_1" width="300" height="300"><text x="150" y="200" fill="rgba(229,229,229,0.8)" font-size="18" transform="rotate(-45, 150, 150)" style="dominant-baseline: middle; text-anchor: middle;"></text></pattern><marker id="SvgjsMarker1039" markerWidth="13" markerHeight="9" refX="9.5" refY="4.5" viewBox="0 0 13 9" orient="auto" markerUnits="userSpaceOnUse" stroke-dasharray="0,0"><path id="SvgjsPath1040" d="M0,0 L13,4.5 L0,9 L0,0" fill="#323232" stroke="#323232" stroke-width="1"></path></marker><marker id="SvgjsMarker1053" markerWidth="13" markerHeight="9" refX="9.5" refY="4.5" viewBox="0 0 13 9" orient="auto" markerUnits="userSpaceOnUse" stroke-dasharray="0,0"><path id="SvgjsPath1054" d="M0,0 L13,4.5 L0,9 L0,0" fill="#323232" stroke="#323232" stroke-width="1"></path></marker><marker id="SvgjsMarker1071" markerWidth="13" markerHeight="9" refX="9.5" refY="4.5" viewBox="0 0 13 9" orient="auto" markerUnits="userSpaceOnUse" stroke-dasharray="0,0"><path id="SvgjsPath1072" d="M0,0 L13,4.5 L0,9 L0,0" fill="#323232" stroke="#323232" stroke-width="1"></path></marker><marker id="SvgjsMarker1089" markerWidth="13" markerHeight="9" refX="9.5" refY="4.5" viewBox="0 0 13 9" orient="auto" markerUnits="userSpaceOnUse" stroke-dasharray="0,0"><path id="SvgjsPath1090" d="M0,0 L13,4.5 L0,9 L0,0" fill="#323232" stroke="#323232" stroke-width="1"></path></marker><marker id="SvgjsMarker1103" markerWidth="13" markerHeight="9" refX="9.5" refY="4.5" viewBox="0 0 13 9" orient="auto" markerUnits="userSpaceOnUse" stroke-dasharray="0,0"><path id="SvgjsPath1104" d="M0,0 L13,4.5 L0,9 L0,0" fill="#323232" stroke="#323232" stroke-width="1"></path></marker><marker id="SvgjsMarker1107" markerWidth="13" markerHeight="9" refX="9.5" refY="4.5" viewBox="0 0 13 9" orient="auto" markerUnits="userSpaceOnUse" stroke-dasharray="0,0"><path id="SvgjsPath1108" d="M0,0 L13,4.5 L0,9 L0,0" fill="#323232" stroke="#323232" stroke-width="1"></path></marker><marker id="SvgjsMarker1111" markerWidth="13" markerHeight="9" refX="9.5" refY="4.5" viewBox="0 0 13 9" orient="auto" markerUnits="userSpaceOnUse" stroke-dasharray="0,0"><path id="SvgjsPath1112" d="M0,0 L13,4.5 L0,9 L0,0" fill="#323232" stroke="#323232" stroke-width="1"></path></marker><marker id="SvgjsMarker1147" markerWidth="13" markerHeight="9" refX="9.5" refY="4.5" viewBox="0 0 13 9" orient="auto" markerUnits="userSpaceOnUse" stroke-dasharray="0,0"><path id="SvgjsPath1148" d="M0,0 L13,4.5 L0,9 L0,0" fill="#323232" stroke="#323232" stroke-width="1"></path></marker></defs><rect id="svgbackgroundid" width="1142.4285714285716" height="848.5342916850183" fill="transparent"></rect><rect id="SvgjsRect1009" width="1142.4285714285716" height="848.5342916850183" fill="url(#pattern_mark_0)"></rect><rect id="SvgjsRect1010" width="1142.4285714285716" height="848.5342916850183" fill="url(#pattern_mark_1)"></rect><g id="SvgjsG1011" transform="translate(323.5,188.02775573730457)"><path id="SvgjsPath1012" d="M 0 4Q 0 0 4 0L 227 0Q 231 0 231 4L 231 89Q 231 93 227 93L 4 93Q 0 93 0 89Z" stroke="rgba(33,41,48,1)" stroke-width="1.5" fill-opacity="1" fill="#b7eaeb"></path><path id="SvgjsPath1013" d="M 0 30L 231 30" stroke="rgba(33,41,48,1)" stroke-width="1.5" fill="none"></path><path id="SvgjsPath1014" d="M 0 0L 231 0L 231 93L 0 93Z" stroke="none" fill="none"></path><g id="SvgjsG1015"><text id="SvgjsText1016" font-family="微软雅黑" text-anchor="middle" font-size="13px" width="211px" fill="#323232" font-weight="700" align="middle" lineHeight="125%" anchor="middle" family="微软雅黑" size="13px" weight="700" font-style="" opacity="1" y="4.375" transform="rotate(0)"><tspan id="SvgjsTspan1017" dy="16.25" x="115.5"><tspan id="SvgjsTspan1018" style="">7DoF robot arm</tspan></tspan></text></g><g id="SvgjsG1019"><text id="SvgjsText1020" font-family="微软雅黑" text-anchor="start" font-size="13px" width="211px" fill="#323232" font-weight="400" align="middle" lineHeight="125%" anchor="start" family="微软雅黑" size="13px" weight="400" font-style="" opacity="1" y="34.375" transform="rotate(0)"><tspan id="SvgjsTspan1021" dy="16.25" x="10"><tspan id="SvgjsTspan1022" style="">任务目标：</tspan></tspan><tspan id="SvgjsTspan1023" dy="16.25" x="10"><tspan id="SvgjsTspan1024" style="">1. 实现Low Level Control</tspan></tspan><tspan id="SvgjsTspan1025" dy="16.25" x="10"><tspan id="SvgjsTspan1026" style="">2. 实现自适应阻抗控制</tspan></tspan></text></g></g><g id="SvgjsG1027" transform="translate(25,81.02775573730457)"><path id="SvgjsPath1028" d="M 0 4Q 0 0 4 0L 226 0Q 230 0 230 4L 230 56Q 230 60 226 60L 4 60Q 0 60 0 56Z" stroke="rgba(33,41,48,1)" stroke-width="1.5" fill-opacity="1" fill="#ffffff"></path><path id="SvgjsPath1029" d="M 0 30L 230 30" stroke="rgba(33,41,48,1)" stroke-width="1.5" fill="none"></path><path id="SvgjsPath1030" d="M 0 0L 230 0L 230 60L 0 60Z" stroke="none" fill="none"></path><g id="SvgjsG1031"><text id="SvgjsText1032" font-family="微软雅黑" text-anchor="middle" font-size="13px" width="210px" fill="#323232" font-weight="700" align="middle" lineHeight="125%" anchor="middle" family="微软雅黑" size="13px" weight="700" font-style="" opacity="1" y="4.375" transform="rotate(0)"><tspan id="SvgjsTspan1033" dy="16.25" x="115"><tspan id="SvgjsTspan1034" style="">Low Level Control</tspan></tspan></text></g><g id="SvgjsG1035"><text id="SvgjsText1036" font-family="微软雅黑" text-anchor="start" font-size="13px" width="210px" fill="#323232" font-weight="400" align="middle" lineHeight="125%" anchor="start" family="微软雅黑" size="13px" weight="400" font-style="" opacity="1" y="34.375" transform="rotate(0)"></text></g></g><g id="SvgjsG1037"><path id="SvgjsPath1038" d="M322.75 234.52775573730457L292.1666564941406 234.52775573730457L292.1666564941406 111.02775573730457L257.70000000000005 111.02775573730457" stroke="#323232" stroke-width="1.5" fill="none" marker-end="url(#SvgjsMarker1039)"></path></g><g id="SvgjsG1041" transform="translate(25,303.1454027961281)"><path id="SvgjsPath1042" d="M 0 4Q 0 0 4 0L 226 0Q 230 0 230 4L 230 56Q 230 60 226 60L 4 60Q 0 60 0 56Z" stroke="rgba(33,41,48,1)" stroke-width="1.5" fill-opacity="1" fill="#ffffff"></path><path id="SvgjsPath1043" d="M 0 30L 230 30" stroke="rgba(33,41,48,1)" stroke-width="1.5" fill="none"></path><path id="SvgjsPath1044" d="M 0 0L 230 0L 230 60L 0 60Z" stroke="none" fill="none"></path><g id="SvgjsG1045"><text id="SvgjsText1046" font-family="微软雅黑" text-anchor="middle" font-size="13px" width="210px" fill="#323232" font-weight="700" align="middle" lineHeight="125%" anchor="middle" family="微软雅黑" size="13px" weight="700" font-style="" opacity="1" y="4.375" transform="rotate(0)"><tspan id="SvgjsTspan1047" dy="16.25" x="115"><tspan id="SvgjsTspan1048" style="">自适应阻抗控制</tspan></tspan></text></g><g id="SvgjsG1049"><text id="SvgjsText1050" font-family="微软雅黑" text-anchor="start" font-size="13px" width="210px" fill="#323232" font-weight="400" align="middle" lineHeight="125%" anchor="start" family="微软雅黑" size="13px" weight="400" font-style="" opacity="1" y="34.375" transform="rotate(0)"></text></g></g><g id="SvgjsG1051"><path id="SvgjsPath1052" d="M322.7500964953034 234.5397862669597L292.33331298828125 235.02775573730457L292.33331298828125 333.1454027961281L257.70000000000005 333.1454027961281" stroke="#323232" stroke-width="1.5" fill="none" marker-end="url(#SvgjsMarker1053)"></path></g><g id="SvgjsG1055" transform="translate(619,107.14540279612811)"><path id="SvgjsPath1056" d="M 0 4Q 0 0 4 0L 226 0Q 230 0 230 4L 230 73Q 230 77 226 77L 4 77Q 0 77 0 73Z" stroke="rgba(33,41,48,1)" stroke-width="1.5" fill-opacity="1" fill="#e5f6da"></path><path id="SvgjsPath1057" d="M 0 30L 230 30" stroke="rgba(33,41,48,1)" stroke-width="1.5" fill="none"></path><path id="SvgjsPath1058" d="M 0 0L 230 0L 230 77L 0 77Z" stroke="none" fill="none"></path><g id="SvgjsG1059"><text id="SvgjsText1060" font-family="微软雅黑" text-anchor="middle" font-size="13px" width="210px" fill="#323232" font-weight="700" align="middle" lineHeight="125%" anchor="middle" family="微软雅黑" size="13px" weight="700" font-style="" opacity="1" y="4.375" transform="rotate(0)"><tspan id="SvgjsTspan1061" dy="16.25" x="115"><tspan id="SvgjsTspan1062" style="">Kinematic</tspan></tspan></text></g><g id="SvgjsG1063"><text id="SvgjsText1064" font-family="微软雅黑" text-anchor="start" font-size="13px" width="210px" fill="#323232" font-weight="400" align="middle" lineHeight="125%" anchor="start" family="微软雅黑" size="13px" weight="400" font-style="" opacity="1" y="34.375" transform="rotate(0)"><tspan id="SvgjsTspan1065" dy="16.25" x="10"><tspan id="SvgjsTspan1066" style="">1. Forward Kinematic</tspan></tspan><tspan id="SvgjsTspan1067" dy="16.25" x="10"><tspan id="SvgjsTspan1068" style="">2. Inverse Kinematic</tspan></tspan></text></g></g><g id="SvgjsG1069"><path id="SvgjsPath1070" d="M555.25 234.52775573730457L586.75 234.52775573730457L586.75 145.69442749023426L616.3 145.69442749023426" stroke="#323232" stroke-width="1.5" fill="none" marker-end="url(#SvgjsMarker1071)"></path></g><g id="SvgjsG1073" transform="translate(619,529.0898472405725)"><path id="SvgjsPath1074" d="M 0 4Q 0 0 4 0L 226 0Q 230 0 230 4L 230 73Q 230 77 226 77L 4 77Q 0 77 0 73Z" stroke="rgba(33,41,48,1)" stroke-width="1.5" fill-opacity="1" fill="#e5f6da"></path><path id="SvgjsPath1075" d="M 0 30L 230 30" stroke="rgba(33,41,48,1)" stroke-width="1.5" fill="none"></path><path id="SvgjsPath1076" d="M 0 0L 230 0L 230 77L 0 77Z" stroke="none" fill="none"></path><g id="SvgjsG1077"><text id="SvgjsText1078" font-family="微软雅黑" text-anchor="middle" font-size="13px" width="210px" fill="#323232" font-weight="700" align="middle" lineHeight="125%" anchor="middle" family="微软雅黑" size="13px" weight="700" font-style="" opacity="1" y="4.375" transform="rotate(0)"><tspan id="SvgjsTspan1079" dy="16.25" x="115"><tspan id="SvgjsTspan1080" style="">Motion Planning</tspan></tspan></text></g><g id="SvgjsG1081"><text id="SvgjsText1082" font-family="微软雅黑" text-anchor="start" font-size="13px" width="210px" fill="#323232" font-weight="400" align="middle" lineHeight="125%" anchor="start" family="微软雅黑" size="13px" weight="400" font-style="" opacity="1" y="34.375" transform="rotate(0)"><tspan id="SvgjsTspan1083" dy="16.25" x="10"><tspan id="SvgjsTspan1084" style="">1. Path Planning</tspan></tspan><tspan id="SvgjsTspan1085" dy="16.25" x="10"><tspan id="SvgjsTspan1086" style="">2. Trajectory planning</tspan></tspan></text></g></g><g id="SvgjsG1087"><path id="SvgjsPath1088" d="M555.25 234.52775573730457L586.75 234.52775573730457L586.75 567.6388719346786L616.3 567.6388719346786" stroke="#323232" stroke-width="1.5" fill="none" marker-end="url(#SvgjsMarker1089)"></path></g><g id="SvgjsG1091" transform="translate(619,763.5342916850183)"><path id="SvgjsPath1092" d="M 0 4Q 0 0 4 0L 226 0Q 230 0 230 4L 230 56Q 230 60 226 60L 4 60Q 0 60 0 56Z" stroke="rgba(33,41,48,1)" stroke-width="1.5" fill-opacity="1" fill="#e5f6da"></path><path id="SvgjsPath1093" d="M 0 30L 230 30" stroke="rgba(33,41,48,1)" stroke-width="1.5" fill="none"></path><path id="SvgjsPath1094" d="M 0 0L 230 0L 230 60L 0 60Z" stroke="none" fill="none"></path><g id="SvgjsG1095"><text id="SvgjsText1096" font-family="微软雅黑" text-anchor="middle" font-size="13px" width="210px" fill="#323232" font-weight="700" align="middle" lineHeight="125%" anchor="middle" family="微软雅黑" size="13px" weight="700" font-style="" opacity="1" y="4.375" transform="rotate(0)"><tspan id="SvgjsTspan1097" dy="16.25" x="115"><tspan id="SvgjsTspan1098" style="">Moveit</tspan></tspan></text></g><g id="SvgjsG1099"><text id="SvgjsText1100" font-family="微软雅黑" text-anchor="start" font-size="13px" width="210px" fill="#323232" font-weight="400" align="middle" lineHeight="125%" anchor="start" family="微软雅黑" size="13px" weight="400" font-style="" opacity="1" y="34.375" transform="rotate(0)"></text></g></g><g id="SvgjsG1101"><path id="SvgjsPath1102" d="M555.25 234.52775573730457L586.75 234.52775573730457L586.75 793.5342916850183L616.3 793.5342916850183" stroke="#323232" stroke-width="1.5" fill="none" marker-end="url(#SvgjsMarker1103)"></path></g><g id="SvgjsG1105"><path id="SvgjsPath1106" d="M849.75 145.6454027961281L868.2142857142858 145.6454027961281L868.2142857142858 70L884.7285714285715 70" stroke="#323232" stroke-width="1.5" fill="none" marker-end="url(#SvgjsMarker1107)"></path></g><g id="SvgjsG1109"><path id="SvgjsPath1110" d="M849.75 145.6454027961281L868.2142857142858 145.6454027961281L868.2142857142858 383.5277557373046L884.7285714285715 383.5277557373046" stroke="#323232" stroke-width="1.5" fill="none" marker-end="url(#SvgjsMarker1111)"></path></g><g id="SvgjsG1113" transform="translate(887.4285714285716,25)"><path id="SvgjsPath1114" d="M 0 4Q 0 0 4 0L 226 0Q 230 0 230 4L 230 86Q 230 90 226 90L 4 90Q 0 90 0 86Z" stroke="rgba(33,41,48,1)" stroke-width="1.5" fill-opacity="1" fill="#ffffff"></path><path id="SvgjsPath1115" d="M 0 30L 230 30M 0 60L 230 60" stroke="rgba(33,41,48,1)" stroke-width="1.5" fill="none"></path><path id="SvgjsPath1116" d="M 0 0L 230 0L 230 90L 0 90Z" stroke="none" fill="none"></path><g id="SvgjsG1117"><text id="SvgjsText1118" font-family="微软雅黑" text-anchor="middle" font-size="13px" width="210px" fill="#323232" font-weight="700" align="middle" lineHeight="125%" anchor="middle" family="微软雅黑" size="13px" weight="700" font-style="" opacity="1" y="4.375" transform="rotate(0)"><tspan id="SvgjsTspan1119" dy="16.25" x="115"><tspan id="SvgjsTspan1120" style="">Forward Kinematic</tspan></tspan></text></g><g id="SvgjsG1121"><text id="SvgjsText1122" font-family="微软雅黑" text-anchor="start" font-size="13px" width="210px" fill="#323232" font-weight="400" align="middle" lineHeight="125%" anchor="start" family="微软雅黑" size="13px" weight="400" font-style="" opacity="1" y="34.375" transform="rotate(0)"><tspan id="SvgjsTspan1123" dy="16.25" x="10"><tspan id="SvgjsTspan1124" style="">1. 通过Joint Angle 求 末端位置</tspan></tspan></text></g><g id="SvgjsG1125"><text id="SvgjsText1126" font-family="微软雅黑" text-anchor="start" font-size="13px" width="210px" fill="#323232" font-weight="400" align="middle" lineHeight="125%" anchor="start" family="微软雅黑" size="13px" weight="400" font-style="" opacity="1" y="64.375" transform="rotate(0)"></text></g></g><g id="SvgjsG1127" transform="translate(887.4285714285716,158.02775573730457)"><path id="SvgjsPath1128" d="M 0 4Q 0 0 4 0L 226 0Q 230 0 230 4L 230 119Q 230 123 226 123L 4 123Q 0 123 0 119Z" stroke="rgba(33,41,48,1)" stroke-width="1.5" fill-opacity="1" fill="#f19594"></path><path id="SvgjsPath1129" d="M 0 30L 230 30M 0 93L 230 93" stroke="rgba(33,41,48,1)" stroke-width="1.5" fill="none"></path><path id="SvgjsPath1130" d="M 0 0L 230 0L 230 123L 0 123Z" stroke="none" fill="none"></path><g id="SvgjsG1131"><text id="SvgjsText1132" font-family="微软雅黑" text-anchor="middle" font-size="13px" width="210px" fill="#323232" font-weight="700" align="middle" lineHeight="125%" anchor="middle" family="微软雅黑" size="13px" weight="700" font-style="" opacity="1" y="4.375" transform="rotate(0)"><tspan id="SvgjsTspan1133" dy="16.25" x="115"><tspan id="SvgjsTspan1134" style="">Jacobian Matrix</tspan></tspan></text></g><g id="SvgjsG1135"><text id="SvgjsText1136" font-family="微软雅黑" text-anchor="start" font-size="13px" width="210px" fill="#323232" font-weight="400" align="middle" lineHeight="125%" anchor="start" family="微软雅黑" size="13px" weight="400" font-style="" opacity="1" y="34.375" transform="rotate(0)"><tspan id="SvgjsTspan1137" dy="16.25" x="10"><tspan id="SvgjsTspan1138" style="">齐次方程 对 Joint 求偏导</tspan></tspan><tspan id="SvgjsTspan1139" dy="16.25" x="10"><tspan id="SvgjsTspan1140" style="">1. V  = J *Q_dot</tspan></tspan><tspan id="SvgjsTspan1141" dy="16.25" x="10"><tspan id="SvgjsTspan1142" style="">2. 通过伪逆计算inverse</tspan></tspan></text></g><g id="SvgjsG1143"><text id="SvgjsText1144" font-family="微软雅黑" text-anchor="start" font-size="13px" width="210px" fill="#323232" font-weight="400" align="middle" lineHeight="125%" anchor="start" family="微软雅黑" size="13px" weight="400" font-style="" opacity="1" y="97.375" transform="rotate(0)"></text></g></g><g id="SvgjsG1145"><path id="SvgjsPath1146" d="M849.75 145.6454027961281L868.2142857142858 145.6454027961281L868.2142857142858 219.52775573730457L884.7285714285715 219.52775573730457" stroke="#323232" stroke-width="1.5" fill="none" marker-end="url(#SvgjsMarker1147)"></path></g><g id="SvgjsG1149" transform="translate(887.4285714285716,338.5277557373046)"><path id="SvgjsPath1150" d="M 0 4Q 0 0 4 0L 226 0Q 230 0 230 4L 230 86Q 230 90 226 90L 4 90Q 0 90 0 86Z" stroke="rgba(33,41,48,1)" stroke-width="1.5" fill-opacity="1" fill="#ffffff"></path><path id="SvgjsPath1151" d="M 0 30L 230 30M 0 60L 230 60" stroke="rgba(33,41,48,1)" stroke-width="1.5" fill="none"></path><path id="SvgjsPath1152" d="M 0 0L 230 0L 230 90L 0 90Z" stroke="none" fill="none"></path><g id="SvgjsG1153"><text id="SvgjsText1154" font-family="微软雅黑" text-anchor="middle" font-size="13px" width="210px" fill="#323232" font-weight="700" align="middle" lineHeight="125%" anchor="middle" family="微软雅黑" size="13px" weight="700" font-style="" opacity="1" y="4.375" transform="rotate(0)"><tspan id="SvgjsTspan1155" dy="16.25" x="115"><tspan id="SvgjsTspan1156" style="">Inverse Kinematic</tspan></tspan></text></g><g id="SvgjsG1157"><text id="SvgjsText1158" font-family="微软雅黑" text-anchor="start" font-size="13px" width="210px" fill="#323232" font-weight="400" align="middle" lineHeight="125%" anchor="start" family="微软雅黑" size="13px" weight="400" font-style="" opacity="1" y="34.375" transform="rotate(0)"><tspan id="SvgjsTspan1159" dy="16.25" x="10"><tspan id="SvgjsTspan1160" style="">1. 通过末端位置求 Joint Angle</tspan></tspan></text></g><g id="SvgjsG1161"><text id="SvgjsText1162" font-family="微软雅黑" text-anchor="start" font-size="13px" width="210px" fill="#323232" font-weight="400" align="middle" lineHeight="125%" anchor="start" family="微软雅黑" size="13px" weight="400" font-style="" opacity="1" y="64.375" transform="rotate(0)"></text></g></g><g id="normal_brand" transform="translate(446.2142857142858,462.26714584250914)"><text id="SvgjsText1164" font-family="Helvetica, Arial, sans-serif" style="transform:rotate(-30deg);opacity: 0.06; color:#000; font-family: Microsoft Yahei;"><tspan id="SvgjsTspan1165" font-size="48" dy="0" x="0"></tspan></text></g></svg>